<svg xmlns="http://www.w3.org/2000/svg" viewBox="0 0 228.66 39.08">
  <style>
    .cls-1{fill:#fed136;}
  </style>
  <path class="cls-1" d="M23.08,15.17c.07.4.13.68.16.83a2.66,2.66,0,0,1,.05.62,4.76,4.76,0,0,1-.51,2.18,3,3,0,0,1-1.4,1.43,7.12,7.12,0,0,0-1.73-1.64,10.8,10.8,0,0,0-2.25-1.14,14.23,14.23,0,0,0-2.53-.65,16,16,0,0,0-2.55-.21,13,13,0,0,0-2.32.19,9.91,9.91,0,0,0-1.91.53,3.79,3.79,0,0,0-1.31.83,1.61,1.61,0,0,0-.48,1.14,2.73,2.73,0,0,0,1,1.57,12.76,12.76,0,0,0,2.09,1.56c.82.51,1.74,1,2.74,1.5s2,1,3,1.42c1.2.57,2.24,1.09,3.11,1.58a9.31,9.31,0,0,1,2.16,1.59,5.83,5.83,0,0,1,1.28,2A7.5,7.5,0,0,1,22,33.12a9.43,9.43,0,0,1-.6,3.38,7.84,7.84,0,0,1-1.75,2.74,8.21,8.21,0,0,1-2.78,1.83,9.85,9.85,0,0,1-3.65.65A17,17,0,0,1,9,41.12a20,20,0,0,1-4.3-1.65,12.61,12.61,0,0,1-3.33-2.4A4.09,4.09,0,0,1,0,34.18a5.48,5.48,0,0,1,.41-1.8,7.5,7.5,0,0,1,1.47-2.31A5.49,5.49,0,0,0,3,32.59a10.14,10.14,0,0,0,3.13,2.69,15.79,15.79,0,0,0,4,1.65,16.23,16.23,0,0,0,3.87.51,8.83,8.83,0,0,0,3.23-.5,5.89,5.89,0,0,0,1.94-1.18,3.94,3.94,0,0,0,1-1.4,4,4,0,0,0,.32-1.13,2.14,2.14,0,0,0-.65-1.37,7.65,7.65,0,0,0-1.67-1.27c-.69-.41-1.5-.83-2.42-1.26s-1.88-.85-2.87-1.27c-1.48-.66-2.77-1.28-3.84-1.86a14.83,14.83,0,0,1-2.65-1.77,5.88,5.88,0,0,1-1.53-1.9,5.1,5.1,0,0,1-.47-2.26,6.57,6.57,0,0,1,1.2-3.75A7.41,7.41,0,0,1,9.1,13.83a10,10,0,0,1,2.42-.71,15.83,15.83,0,0,1,2.53-.22,16.76,16.76,0,0,1,4.57.64A34.29,34.29,0,0,1,23.08,15.17Z" transform="translate(0 -12.9)"/>
  <path class="cls-1" d="M25.92,25.47a2.16,2.16,0,0,1-.32-.9,5.75,5.75,0,0,1-.15-1.19,11.13,11.13,0,0,0,1.77.15h1.56c.36-.7.74-1.4,1.15-2.09s.82-1.32,1.21-1.89a17.57,17.57,0,0,1,1.09-1.45,4.35,4.35,0,0,1,.8-.77,4.29,4.29,0,0,1,.9.12c.37.09.74.19,1.12.32s.72.27,1,.41a1.89,1.89,0,0,1,.63.42c-.71.9-1.31,1.72-1.82,2.48s-1.06,1.64-1.65,2.62h1.44a10.58,10.58,0,0,0,1.47-.1,1.28,1.28,0,0,1,.28.44,1.5,1.5,0,0,1,.11.55,11.71,11.71,0,0,1-4.22.67c-.59,1.14-1.11,2.27-1.57,3.39s-.85,2.21-1.17,3.25a26.36,26.36,0,0,0-.74,2.94,13.17,13.17,0,0,0-.27,2.49q0,1.56,1.17,1.74a8.46,8.46,0,0,0,2-.53,6.68,6.68,0,0,0,1.7-1,1.42,1.42,0,0,1",".24.54,3.7,3.7,0,0,1-.72.73,12.51,12.51,0,0,1-1.12.83,10.47,10.47,0,0,1-1.17.69,3,3,0,0,1-.85.31,4.85,4.85,0,0,1-1.77-.35,7.38,7.38,0,0,1-1.61-.89,4.93,4.93,0,0,1-1.18-1.19,2.19,2.19,0,0,1-.46-1.29,11.94,11.94,0,0,1,.23-2.14c.15-.87.37-1.8.65-2.82s.62-2.08,1-3.19.79-2.21,1.24-3.3Z" transform="translate(0 -12.9)"/>
</svg>
